<svg width="20" height="20" viewBox="0 0 20 20" fill="none" xmlns="http://www.w3.org/2000/svg">
<path d="M17.7084 10H7.41252M3.77835 10H2.29169M3.77835 10C3.77835 9.51819 3.96975 9.05612 4.31044 8.71542C4.65113 8.37473 5.11321 8.18333 5.59502 8.18333C6.07683 8.18333 6.53891 8.37473 6.8796 8.71542C7.22029 9.05612 7.41169 9.51819 7.41169 10C7.41169 10.4818 7.22029 10.9439 6.8796 11.2846C6.53891 11.6253 6.07683 11.8167 5.59502 11.8167C5.11321 11.8167 4.65113 11.6253 4.31044 11.2846C3.96975 10.9439 3.77835 10.4818 3.77835 10ZM17.7084 15.5058H12.9184M12.9184 15.5058C12.9184 15.9878 12.7265 16.4504 12.3857 16.7911C12.045 17.1319 11.5828 17.3233 11.1009 17.3233C10.619 17.3233 10.157 17.1311 9.81628 16.7904C9.47559 16.4497 9.28419 15.9876 9.28419 15.5058M12.9184 15.5058C12.9184 15.0239 12.7265 14.5621 12.3857 14.2214C12.045 13.8806 11.5828 13.6892 11.1009 13.6892C10.619 13.6892 10.157 13.8806 9.81628 14.2213C9.47559 14.5619 9.28419 15.024 9.28419 15.5058M9.28419 15.5058H2.29169M17.7084 4.49417H15.1209M11.4867 4.49417H2.29169M11.4867 4.49417C11.4867 4.01236 11.6781 3.55028 12.0188 3.20959C12.3595 2.8689 12.8215 2.6775 13.3034 2.6775C13.5419 2.6775 13.7782 2.72449 13.9986 2.81579C14.219 2.90708 14.4192 3.0409 14.5879 3.20959C14.7566 3.37828 14.8904 3.57855 14.9817 3.79896C15.073 4.01937 15.12 4.2556 15.12 4.49417C15.12 4.73274 15.073 4.96897 14.9817 5.18938C14.8904 5.40978 14.7566 5.61005 14.5879 5.77875C14.4192 5.94744 14.219 6.08125 13.9986 6.17255C13.7782 6.26385 13.5419 6.31083 13.3034 6.31083C12.8215 6.31083 12.3595 6.11944 12.0188 5.77875C11.6781 5.43805 11.4867 4.97598 11.4867 4.49417Z" stroke="#0A140F" stroke-width="1.5" stroke-miterlimit="10" stroke-linecap="round"/>
</svg>
