<svg width="21" height="15" viewBox="0 0 21 15" fill="none" xmlns="http://www.w3.org/2000/svg">
<path d="M16.044 4.07895C15.9228 5.81813 14.6758 7.15789 13.3158 7.15789C11.9559 7.15789 10.7067 5.81855 10.5877 4.07895C10.4637 2.26964 11.6777 1 13.3158 1C14.9539 1 16.168 2.30257 16.044 4.07895Z" stroke="#0A140F" stroke-width="1.5" stroke-linecap="round" stroke-linejoin="round"/>
<path d="M13.3157 9.21051C10.5288 9.21051 7.84874 10.5948 7.17734 13.2905C7.08839 13.6472 7.31205 14 7.67854 14H18.9533C19.3198 14 19.5422 13.6472 19.4545 13.2905C18.7831 10.5516 16.1031 9.21051 13.3157 9.21051Z" stroke="#0A140F" stroke-width="1.5" stroke-miterlimit="10"/>
<path d="M7.83462 4.76067C7.72922 6.10172 6.63107 7.15788 5.44735 7.15788C4.26362 7.15788 3.16368 6.10213 3.06008 4.76067C2.95243 3.36553 4.02129 2.36841 5.44735 2.36841C6.8734 2.36841 7.94227 3.39113 7.83462 4.76067Z" stroke="#0A140F" stroke-width="1.5" stroke-linecap="round" stroke-linejoin="round"/>
<path d="M7.84211 9.64842C7.13238 9.33213 6.35069 9.21051 5.52221 9.21051C3.47756 9.21051 1.50762 10.1992 1.01415 12.1248C0.949268 12.3795 1.11363 12.6316 1.38258 12.6316H5.79745" stroke="#0A140F" stroke-width="1.5" stroke-miterlimit="10" stroke-linecap="round"/>
</svg>
